<svg width="180" height="64" fill="none" xmlns="http://www.w3.org/2000/svg"><path fill-rule="evenodd" clip-rule="evenodd" d="M150.053 61.507c.027-.732.04-1.468.04-2.207C150.093 26.887 123.73.612 91.21.612S32.326 26.888 32.326 59.3c0 .739.014 1.475.041 2.207C33.531 30.117 59.43 5.024 91.21 5.024c31.779 0 57.678 25.092 58.843 56.483Z" fill="#fff"/><path fill-rule="evenodd" clip-rule="evenodd" d="M150.053 63.507c.027-.732.04-1.468.04-2.207 0-32.413-26.363-58.688-58.883-58.688S32.326 28.888 32.326 61.3c0 .739.014 1.475.041 2.207C33.531 32.117 59.43 7.024 91.21 7.024c31.779 0 57.678 25.092 58.843 56.483Z" fill="#0C0B11"/><path d="M7.231 37.24a1.93 1.93 0 0 0-.163-.49 1.377 1.377 0 0 0-.365-.527 1.767 1.767 0 0 0-.637-.418c-.267-.12-.595-.181-.984-.181-.534 0-.965.145-1.293.435-.316.279-.474.594-.474.945 0 .314.097.58.292.798.206.206.534.351.983.436l1.73.327c.62.109 1.16.29 1.622.544.461.242.85.533 1.166.872.315.339.552.72.71 1.144.158.411.237.847.237 1.307a3.76 3.76 0 0 1-.31 1.488 3.86 3.86 0 0 1-.929 1.308c-.4.375-.898.683-1.493.926-.595.23-1.276.344-2.04.344-.9 0-1.67-.127-2.314-.38-.644-.267-1.178-.6-1.603-1a4.172 4.172 0 0 1-.965-1.325A4.622 4.622 0 0 1 0 42.377l2.641-.635c.025.29.091.575.2.853.122.267.292.502.51.708.22.194.492.351.82.472.328.121.71.182 1.148.182.57 0 1.014-.121 1.33-.363.327-.254.491-.581.491-.98 0-.327-.127-.6-.382-.818-.243-.23-.577-.387-1.002-.472l-1.767-.326c-1.105-.206-1.967-.648-2.586-1.326-.62-.677-.93-1.494-.93-2.45 0-.606.122-1.163.365-1.67a4.145 4.145 0 0 1 1.02-1.308 4.804 4.804 0 0 1 1.475-.853 5.07 5.07 0 0 1 1.767-.309c.802 0 1.488.109 2.059.327.57.218 1.038.496 1.402.835.377.327.662.696.856 1.107.195.4.328.787.401 1.162l-2.587.727Zm31.228 1.888c.547 0 .99-.146 1.33-.436.34-.29.51-.69.51-1.198 0-.52-.17-.926-.51-1.217-.34-.29-.783-.435-1.33-.435h-1.675v3.286h1.675Zm-1.694 2.469v4.63h-2.878V33.353h4.864c.656 0 1.25.103 1.785.309.546.206 1.014.49 1.402.853.401.363.705.8.911 1.307.219.509.328 1.06.328 1.652 0 .606-.11 1.162-.328 1.67-.206.51-.51.945-.91 1.308a4.187 4.187 0 0 1-1.403.853c-.534.194-1.13.29-1.785.29h-1.986Zm36.861 2.015h-4.99l-.93 2.614h-3.023l4.863-12.872h3.333l4.81 12.872h-3.134l-.929-2.614Zm-4.044-2.614h3.134l-1.549-4.448-1.585 4.448Zm36.801 5.5c-.935 0-1.81-.157-2.623-.471a6.623 6.623 0 0 1-2.132-1.362 6.447 6.447 0 0 1-1.42-2.106c-.352-.823-.528-1.737-.528-2.741 0-1.005.176-1.919.528-2.742a6.487 6.487 0 0 1 1.457-2.124 6.503 6.503 0 0 1 2.113-1.38 6.825 6.825 0 0 1 2.568-.49c.972 0 1.81.14 2.514.418.704.278 1.299.635 1.785 1.07.486.424.862.89 1.129 1.399.28.508.474.992.583 1.452l-2.714.853a3.066 3.066 0 0 0-.291-.744 2.686 2.686 0 0 0-.583-.78 2.842 2.842 0 0 0-.984-.618c-.388-.17-.868-.254-1.439-.254-.437 0-.874.079-1.311.236a3.44 3.44 0 0 0-1.184.726c-.352.315-.638.72-.856 1.216-.219.497-.328 1.084-.328 1.762 0 .605.103 1.143.309 1.615.207.472.48.872.82 1.199.352.326.747.574 1.184.744.449.17.917.254 1.403.254.558 0 1.038-.079 1.439-.236.4-.17.734-.375 1.002-.617.267-.254.473-.52.619-.799.158-.278.267-.533.328-.763l2.75.781a6.202 6.202 0 0 1-.583 1.453 5.32 5.32 0 0 1-1.147 1.47c-.486.448-1.093.823-1.822 1.126-.728.302-1.591.453-2.586.453Zm29.973-.272V33.354h8.179v2.705h-5.301v2.451h4.809v2.524h-4.809v2.469h5.319v2.723h-8.197Zm37.032-2.705c.498 0 .965-.072 1.402-.218.438-.145.82-.369 1.148-.671.328-.303.583-.69.765-1.162.194-.472.291-1.03.291-1.67 0-.642-.097-1.199-.291-1.67a3.036 3.036 0 0 0-.765-1.163 2.999 2.999 0 0 0-1.148-.69 4.417 4.417 0 0 0-1.402-.218h-1.676v7.462h1.676Zm-4.554 2.705V33.354h4.681c.972 0 1.852.152 2.642.454.801.29 1.487.714 2.058 1.271a5.539 5.539 0 0 1 1.311 2.033c.316.8.474 1.695.474 2.687 0 .993-.158 1.889-.474 2.687a5.569 5.569 0 0 1-1.311 2.016 5.887 5.887 0 0 1-2.058 1.288c-.802.291-1.688.436-2.66.436h-4.663Z" fill="#fff"/></svg>