<svg aria-hidden="true" style="position: absolute; width: 0; height: 0; overflow: hidden;" version="1.1" xmlns="http://www.w3.org/2000/svg" xmlns:xlink="http://www.w3.org/1999/xlink">
<defs>

<symbol id="icon-facebook-icon" viewBox="0 0 32 32">
<path d="M0 0h32v32h-32v-32z"></path>
</symbol>

<symbol id="icon-Hamburger-icon" viewBox="0 0 48 32">
<path fill="none" stroke="#fff" style="stroke: var(--color1, #fff)" stroke-linejoin="miter" stroke-linecap="butt" stroke-miterlimit="4" stroke-width="4.5714" d="mNaNclNaNNaNclNaNNaNNaNNaNclNaNNaNclNaNNaN"></path>
<path fill="none" stroke="#fff" style="stroke: var(--color1, #fff)" stroke-linejoin="miter" stroke-linecap="butt" stroke-miterlimit="4" stroke-width="4.5714" d="mNaNclNaNNaNclNaNNaNNaNNaNclNaNNaNclNaNNaN"></path>
</symbol>

<symbol id="icon-instagram-icon" viewBox="0 0 32 32">
<path d="M0 0h32v32h-32v-32z"></path>
</symbol>

<symbol id="icon-Logo" viewBox="0 0 90 32">
<path fill="#fff" style="fill: var(--color1, #fff)" d="M75.026 30.753c0.013-0.366 0.020-0.734 0.020-1.103 0-16.206-13.181-29.344-29.442-29.344s-29.442 13.138-29.442 29.344c0 0.369 0.007 0.737 0.020 1.103 0.582-15.695 13.532-28.241 29.421-28.241s28.839 12.546 29.422 28.241z"></path>
<path fill="#0c0b11" style="fill: var(--color2, #0c0b11)" d="M75.026 31.753c0.013-0.366 0.020-0.734 0.020-1.103 0-16.206-13.181-29.344-29.442-29.344s-29.442 13.138-29.442 29.344c0 0.369 0.007 0.737 0.020 1.103 0.582-15.695 13.532-28.241 29.421-28.241s28.839 12.546 29.422 28.241z"></path>
<path fill="#fff" style="fill: var(--color1, #fff)" d="M3.616 18.62c-0.012-0.073-0.039-0.154-0.082-0.245-0.036-0.097-0.097-0.185-0.182-0.263-0.079-0.085-0.185-0.154-0.319-0.209-0.134-0.061-0.297-0.091-0.492-0.091-0.267 0-0.483 0.073-0.647 0.218-0.158 0.139-0.237 0.297-0.237 0.472 0 0.157 0.049 0.291 0.146 0.399 0.103 0.103 0.267 0.175 0.492 0.218l0.865 0.163c0.31 0.055 0.58 0.145 0.811 0.272 0.231 0.121 0.425 0.266 0.583 0.436s0.276 0.36 0.355 0.572c0.079 0.206 0.118 0.424 0.118 0.654 0 0.254-0.052 0.502-0.155 0.744s-0.258 0.46-0.465 0.654c-0.2 0.188-0.449 0.342-0.747 0.463-0.298 0.115-0.638 0.172-1.020 0.172-0.449 0-0.835-0.064-1.157-0.191-0.322-0.133-0.589-0.3-0.801-0.499s-0.373-0.421-0.483-0.663c-0.109-0.242-0.176-0.478-0.2-0.708l1.321-0.318c0.012 0.145 0.046 0.287 0.1 0.427 0.061 0.133 0.146 0.251 0.255 0.354 0.109 0.097 0.246 0.175 0.41 0.236s0.355 0.091 0.574 0.091c0.285 0 0.507-0.061 0.665-0.182 0.164-0.127 0.246-0.29 0.246-0.49 0-0.163-0.064-0.3-0.191-0.409-0.121-0.115-0.288-0.194-0.501-0.236l-0.883-0.163c-0.553-0.103-0.984-0.324-1.293-0.663s-0.465-0.747-0.465-1.225c0-0.303 0.061-0.581 0.182-0.835 0.128-0.254 0.298-0.472 0.51-0.654s0.458-0.324 0.738-0.427c0.279-0.103 0.574-0.154 0.883-0.154 0.401 0 0.744 0.055 1.029 0.163s0.519 0.248 0.701 0.418c0.188 0.163 0.331 0.348 0.428 0.554 0.097 0.2 0.164 0.393 0.2 0.581l-1.293 0.363zM19.23 19.564c0.273 0 0.495-0.073 0.665-0.218s0.255-0.345 0.255-0.599c0-0.26-0.085-0.463-0.255-0.608s-0.392-0.218-0.665-0.218h-0.838v1.643h0.838zM18.383 20.798v2.315h-1.439v-6.436h2.432c0.328 0 0.625 0.051 0.893 0.154 0.273 0.103 0.507 0.245 0.701 0.427 0.2 0.182 0.352 0.399 0.455 0.654 0.109 0.254 0.164 0.53 0.164 0.826 0 0.303-0.055 0.581-0.164 0.835-0.103 0.254-0.255 0.472-0.455 0.654-0.194 0.182-0.428 0.324-0.701 0.427-0.267 0.097-0.565 0.145-0.893 0.145h-0.993zM36.813 21.806h-2.495l-0.465 1.307h-1.512l2.432-6.436h1.667l2.404 6.436h-1.566l-0.465-1.307zM34.791 20.499h1.567l-0.774-2.224-0.792 2.224zM53.191 23.249c-0.468 0-0.905-0.079-1.312-0.236-0.407-0.163-0.762-0.39-1.066-0.681-0.297-0.291-0.534-0.642-0.71-1.053s-0.264-0.868-0.264-1.371c0-0.502 0.088-0.959 0.264-1.371 0.182-0.418 0.425-0.772 0.728-1.062 0.303-0.297 0.655-0.526 1.056-0.69 0.407-0.163 0.835-0.245 1.284-0.245 0.486 0 0.905 0.070 1.257 0.209s0.65 0.318 0.892 0.536c0.243 0.212 0.431 0.445 0.565 0.699 0.14 0.254 0.237 0.496 0.291 0.726l-1.357 0.427c-0.024-0.109-0.072-0.233-0.145-0.372-0.067-0.139-0.164-0.269-0.291-0.39-0.127-0.127-0.291-0.23-0.492-0.309-0.194-0.085-0.434-0.127-0.72-0.127-0.218 0-0.437 0.039-0.656 0.118s-0.416 0.2-0.592 0.363c-0.176 0.157-0.319 0.36-0.428 0.608s-0.164 0.542-0.164 0.881c0 0.303 0.051 0.572 0.154 0.808s0.24 0.436 0.41 0.599c0.176 0.163 0.373 0.287 0.592 0.372 0.224 0.085 0.459 0.127 0.702 0.127 0.279 0 0.519-0.039 0.72-0.118 0.2-0.085 0.367-0.188 0.501-0.309 0.133-0.127 0.236-0.26 0.309-0.399 0.079-0.139 0.133-0.266 0.164-0.381l1.375 0.39c-0.054 0.224-0.151 0.466-0.291 0.726-0.133 0.26-0.325 0.505-0.574 0.735-0.243 0.224-0.547 0.412-0.911 0.563s-0.795 0.227-1.293 0.227zM68.178 23.113v-6.436h4.090v1.352h-2.65v1.226h2.404v1.262h-2.404v1.235h2.659v1.362h-4.099zM86.694 21.761c0.249 0 0.483-0.036 0.701-0.109s0.41-0.185 0.574-0.336 0.291-0.345 0.382-0.581c0.097-0.236 0.145-0.514 0.145-0.835s-0.049-0.599-0.145-0.835c-0.091-0.236-0.219-0.43-0.382-0.581-0.164-0.157-0.355-0.272-0.574-0.345s-0.452-0.109-0.701-0.109h-0.838v3.731h0.838zM84.417 23.113v-6.436h2.341c0.486 0 0.926 0.076 1.321 0.227 0.4 0.145 0.743 0.357 1.029 0.635s0.504 0.617 0.656 1.017c0.158 0.399 0.237 0.847 0.237 1.343s-0.079 0.944-0.237 1.343c-0.151 0.393-0.37 0.729-0.656 1.008s-0.629 0.493-1.029 0.645c-0.401 0.145-0.844 0.218-1.33 0.218h-2.332z"></path>
</symbol>

<symbol id="icon-search-con" viewBox="0 0 34 32">
<path fill="none" stroke="#fff" style="stroke: var(--color1, #fff)" stroke-linejoin="miter" stroke-linecap="butt" stroke-miterlimit="4" stroke-width="4" d="M24 13c0 6.075-4.925 11-11 11s-11-4.925-11-11c0-6.075 4.925-11 11-11s11 4.925 11 11z"></path>
<path fill="none" stroke="#fff" style="stroke: var(--color1, #fff)" stroke-linejoin="miter" stroke-linecap="butt" stroke-miterlimit="4" stroke-width="4" d="M21.414 20.586l10 10"></path>
</symbol>

<symbol id="icon-twitter-icon" viewBox="0 0 32 32">
<path d="M0 0h32v32h-32v-32z"></path>
</symbol>

</defs>
</svg>
